<svg width="64" height="64" viewBox="0 0 64 64" fill="none" xmlns="http://www.w3.org/2000/svg">
<path d="M60.5265 37.7273C59.839 37.4426 59.1152 37.2982 58.3754 37.2982C56.7436 37.2982 55.2364 37.9946 54.1897 39.1615L52.9697 38.6562L49.4896 37.2147C49.9835 35.5616 50.25 33.8113 50.25 31.9998C50.25 30.1883 49.9834 28.4381 49.4896 26.7849L52.9697 25.3435L54.1897 24.8381C55.2364 26.0051 56.7436 26.7014 58.3754 26.7014C59.1152 26.7014 59.839 26.5571 60.5265 26.2722C63.3918 25.0852 64.7576 21.7883 63.5706 18.9227C62.6966 16.8128 60.6561 15.4493 58.3724 15.4493C57.6325 15.4493 56.9087 15.5937 56.2212 15.8786C53.963 16.814 52.6375 19.0598 52.7575 21.3722L51.5304 21.8805L48.0514 23.3215C46.3613 20.208 43.7918 17.6383 40.6783 15.9483L42.1193 12.4694L42.627 11.2436C42.7254 11.2487 42.824 11.2517 42.923 11.2517C45.2069 11.2517 47.2473 9.88836 48.1214 7.77836C49.3083 4.91287 47.9426 1.61587 45.0771 0.428874C44.3895 0.144375 43.6659 0 42.926 0C40.6421 0 38.6018 1.36337 37.7276 3.47337C36.7923 5.73161 37.443 8.25698 39.163 9.80723L38.6565 11.0301L37.215 14.5102C35.5619 14.0165 33.8117 13.7498 32.0002 13.7498C30.1887 13.7498 28.4384 14.0165 26.7853 14.5102L25.3438 11.0301L24.8373 9.80723C26.5573 8.25698 27.208 5.73161 26.2727 3.47324C25.3985 1.36337 23.3579 0 21.0742 0C20.3343 0 19.6106 0.144375 18.9231 0.429249C16.0577 1.61625 14.6919 4.91312 15.8789 7.77874C16.7529 9.88861 18.7934 11.2521 21.0772 11.2521C21.1762 11.2521 21.2748 11.2491 21.3732 11.244L21.8809 12.4697L23.3219 15.9487C20.2084 17.6388 17.6388 20.2083 15.9488 23.3218L12.4698 21.8808L11.2427 21.3726C11.3627 19.0602 10.0372 16.8143 7.77895 15.8788C7.09145 15.5941 6.3677 15.4497 5.62783 15.4497C3.34396 15.4497 1.30359 16.8131 0.429466 18.9231C-0.757407 21.7886 0.608216 25.0856 3.47371 26.2726C4.16121 26.5573 4.88496 26.7017 5.62483 26.7017C7.25658 26.7017 8.76383 26.0053 9.81045 24.8383L11.0304 25.3437L14.5106 26.7852C14.0167 28.4383 13.7502 30.1886 13.7502 32.0001C13.7502 33.8116 14.0168 35.5618 14.5106 37.2149L11.0303 38.6562L9.81032 39.1615C8.7637 37.9946 7.25645 37.2982 5.62471 37.2982C4.88483 37.2982 4.16108 37.4426 3.47359 37.7274C0.608216 38.9144 -0.757532 42.2113 0.429466 45.0769C1.30346 47.1868 3.34396 48.5503 5.62771 48.5503C6.36758 48.5503 7.09133 48.4059 7.77883 48.121C10.0371 47.1857 11.3626 44.9398 11.2426 42.6274L12.4697 42.1192L15.9487 40.6782C17.6388 43.7917 20.2083 46.3613 23.3218 48.0513L21.8808 51.5303L21.3731 52.756C21.2747 52.7509 21.1761 52.7479 21.0771 52.7479C18.7932 52.7479 16.7528 54.1113 15.8787 56.2213C14.6918 59.0868 16.0574 62.3838 18.9229 63.5708C19.6104 63.8555 20.3342 63.9999 21.0741 63.9999C23.3579 63.9999 25.3983 62.6365 26.2724 60.5265C27.2078 58.2683 26.557 55.7429 24.837 54.1926L25.3435 52.9698L26.785 49.4897C28.4382 49.9834 30.1884 50.25 31.9999 50.25C33.8114 50.25 35.5616 49.9834 37.2148 49.4897L38.6563 52.9698L39.1628 54.1926C37.4428 55.7429 36.792 58.2683 37.7274 60.5266C38.6014 62.6365 40.6419 64 42.9256 64C43.6655 64 44.3893 63.8556 45.0768 63.5708C47.9421 62.3838 49.3079 59.0869 48.1209 56.2213C47.2469 54.1114 45.2064 52.7479 42.9226 52.7479C42.8236 52.7479 42.725 52.7509 42.6266 52.756L42.1189 51.5303L40.6779 48.0513C43.7914 46.3612 46.361 43.7917 48.051 40.6782L51.53 42.1192L52.7571 42.6274C52.6371 44.9398 53.9626 47.1857 56.2209 48.1212C56.9084 48.4059 57.6321 48.5503 58.372 48.5503C60.6559 48.5503 62.6962 47.1869 63.5703 45.0769C64.7576 42.2113 63.3921 38.9143 60.5265 37.7273ZM32.0002 46.4998C24.0049 46.4998 17.5002 39.995 17.5002 31.9998C17.5002 24.0046 24.0049 17.4998 32.0002 17.4998C39.9954 17.4998 46.5001 24.0046 46.5001 31.9998C46.5001 39.995 39.9953 46.4998 32.0002 46.4998Z" fill="black"/>
<path d="M60.5265 37.7273C59.839 37.4426 59.1152 37.2982 58.3754 37.2982C56.7436 37.2982 55.2364 37.9946 54.1897 39.1615L52.9697 38.6562L49.4896 37.2147C49.9835 35.5616 50.25 33.8113 50.25 31.9998C50.25 30.1883 49.9834 28.4381 49.4896 26.7849L52.9697 25.3435L54.1897 24.8381C55.2364 26.0051 56.7436 26.7014 58.3754 26.7014C59.1152 26.7014 59.839 26.5571 60.5265 26.2722C63.3918 25.0852 64.7576 21.7883 63.5706 18.9227C62.6966 16.8128 60.6561 15.4493 58.3724 15.4493C57.6325 15.4493 56.9087 15.5937 56.2212 15.8786C53.963 16.814 52.6375 19.0598 52.7575 21.3722L51.5304 21.8805L48.0514 23.3215C46.3613 20.208 43.7918 17.6383 40.6783 15.9483L42.1193 12.4694L42.627 11.2436C42.7254 11.2487 42.824 11.2517 42.923 11.2517C45.2069 11.2517 47.2473 9.88836 48.1214 7.77836C49.3083 4.91287 47.9426 1.61587 45.0771 0.428874C44.3895 0.144375 43.6659 0 42.926 0C40.6421 0 38.6018 1.36337 37.7276 3.47337C36.7923 5.73161 37.443 8.25698 39.163 9.80723L38.6565 11.0301L37.215 14.5102C35.5619 14.0165 33.8117 13.7498 32.0002 13.7498C30.1887 13.7498 28.4384 14.0165 26.7853 14.5102L25.3438 11.0301L24.8373 9.80723C26.5573 8.25698 27.208 5.73161 26.2727 3.47324C25.3985 1.36337 23.3579 0 21.0742 0C20.3343 0 19.6106 0.144375 18.9231 0.429249C16.0577 1.61625 14.6919 4.91312 15.8789 7.77874C16.7529 9.88861 18.7934 11.2521 21.0772 11.2521C21.1762 11.2521 21.2748 11.2491 21.3732 11.244L21.8809 12.4697L23.3219 15.9487C20.2084 17.6388 17.6388 20.2083 15.9488 23.3218L12.4698 21.8808L11.2427 21.3726C11.3627 19.0602 10.0372 16.8143 7.77895 15.8788C7.09145 15.5941 6.3677 15.4497 5.62783 15.4497C3.34396 15.4497 1.30359 16.8131 0.429466 18.9231C-0.757407 21.7886 0.608216 25.0856 3.47371 26.2726C4.16121 26.5573 4.88496 26.7017 5.62483 26.7017C7.25658 26.7017 8.76383 26.0053 9.81045 24.8383L11.0304 25.3437L14.5106 26.7852C14.0167 28.4383 13.7502 30.1886 13.7502 32.0001C13.7502 33.8116 14.0168 35.5618 14.5106 37.2149L11.0303 38.6562L9.81032 39.1615C8.7637 37.9946 7.25645 37.2982 5.62471 37.2982C4.88483 37.2982 4.16108 37.4426 3.47359 37.7274C0.608216 38.9144 -0.757532 42.2113 0.429466 45.0769C1.30346 47.1868 3.34396 48.5503 5.62771 48.5503C6.36758 48.5503 7.09133 48.4059 7.77883 48.121C10.0371 47.1857 11.3626 44.9398 11.2426 42.6274L12.4697 42.1192L15.9487 40.6782C17.6388 43.7917 20.2083 46.3613 23.3218 48.0513L21.8808 51.5303L21.3731 52.756C21.2747 52.7509 21.1761 52.7479 21.0771 52.7479C18.7932 52.7479 16.7528 54.1113 15.8787 56.2213C14.6918 59.0868 16.0574 62.3838 18.9229 63.5708C19.6104 63.8555 20.3342 63.9999 21.0741 63.9999C23.3579 63.9999 25.3983 62.6365 26.2724 60.5265C27.2078 58.2683 26.557 55.7429 24.837 54.1926L25.3435 52.9698L26.785 49.4897C28.4382 49.9834 30.1884 50.25 31.9999 50.25C33.8114 50.25 35.5616 49.9834 37.2148 49.4897L38.6563 52.9698L39.1628 54.1926C37.4428 55.7429 36.792 58.2683 37.7274 60.5266C38.6014 62.6365 40.6419 64 42.9256 64C43.6655 64 44.3893 63.8556 45.0768 63.5708C47.9421 62.3838 49.3079 59.0869 48.1209 56.2213C47.2469 54.1114 45.2064 52.7479 42.9226 52.7479C42.8236 52.7479 42.725 52.7509 42.6266 52.756L42.1189 51.5303L40.6779 48.0513C43.7914 46.3612 46.361 43.7917 48.051 40.6782L51.53 42.1192L52.7571 42.6274C52.6371 44.9398 53.9626 47.1857 56.2209 48.1212C56.9084 48.4059 57.6321 48.5503 58.372 48.5503C60.6559 48.5503 62.6962 47.1869 63.5703 45.0769C64.7576 42.2113 63.3921 38.9143 60.5265 37.7273ZM32.0002 46.4998C24.0049 46.4998 17.5002 39.995 17.5002 31.9998C17.5002 24.0046 24.0049 17.4998 32.0002 17.4998C39.9954 17.4998 46.5001 24.0046 46.5001 31.9998C46.5001 39.995 39.9953 46.4998 32.0002 46.4998Z" fill="url(#paint0_linear_22728_12627)"/>
<path d="M32 21.25C26.0725 21.25 21.25 26.0725 21.25 32C21.25 37.9275 26.0725 42.75 32 42.75C37.9275 42.75 42.75 37.9275 42.75 32C42.75 26.0725 37.9275 21.25 32 21.25ZM33.875 36.125H30.125V27.875H33.875V36.125Z" fill="black"/>
<path d="M32 21.25C26.0725 21.25 21.25 26.0725 21.25 32C21.25 37.9275 26.0725 42.75 32 42.75C37.9275 42.75 42.75 37.9275 42.75 32C42.75 26.0725 37.9275 21.25 32 21.25ZM33.875 36.125H30.125V27.875H33.875V36.125Z" fill="url(#paint1_linear_22728_12627)"/>
<defs>
<linearGradient id="paint0_linear_22728_12627" x1="32" y1="0" x2="32" y2="64" gradientUnits="userSpaceOnUse">
<stop stop-color="#EF8080"/>
<stop offset="1" stop-color="#F0145A"/>
</linearGradient>
<linearGradient id="paint1_linear_22728_12627" x1="32" y1="21.25" x2="32" y2="42.75" gradientUnits="userSpaceOnUse">
<stop stop-color="#EF8080"/>
<stop offset="1" stop-color="#F0145A"/>
</linearGradient>
</defs>
</svg>
