<svg width="64" height="64" viewBox="0 0 64 64" fill="none" xmlns="http://www.w3.org/2000/svg">
<path fill-rule="evenodd" clip-rule="evenodd" d="M53.4512 35.0781V52.3733C53.4512 55.4666 51.0269 58.0017 48.0631 58.0017H15.9701C13.0063 58.0017 10.582 55.4666 10.582 52.3733V35.0781H27.2481V42.5889L32.0166 45.7224L36.7851 42.5889V35.0781H53.4512Z" fill="url(#paint0_linear_22728_12620)"/>
<path fill-rule="evenodd" clip-rule="evenodd" d="M28.9185 35.0781V41.6866L32.0166 43.7222L35.1146 41.6866V35.0781H28.9185Z" fill="url(#paint1_linear_22728_12620)"/>
<path fill-rule="evenodd" clip-rule="evenodd" d="M12.0734 15.1445H51.9599C53.8423 15.1445 55.3808 16.8526 55.3808 18.94V29.1931C55.3808 31.2805 53.8423 32.9886 51.9599 32.9886H36.314H27.7194H12.0734C10.191 32.9886 8.65259 31.2805 8.65259 29.1931V18.94C8.65259 16.8526 10.191 15.1445 12.0734 15.1445Z" fill="url(#paint2_linear_22728_12620)"/>
<path fill-rule="evenodd" clip-rule="evenodd" d="M23.712 5.95508H40.3215C41.8647 5.95508 43.1275 7.21788 43.1275 8.76103V13.1384H39.57V10.5516C39.57 9.8542 38.9998 9.2817 38.3024 9.2817H25.731C25.0337 9.2817 24.4635 9.8542 24.4635 10.5516V13.1384H20.906V8.76103C20.906 7.21788 22.1688 5.95508 23.712 5.95508Z" fill="url(#paint3_linear_22728_12620)"/>
<defs>
<linearGradient id="paint0_linear_22728_12620" x1="32.0166" y1="35.0781" x2="32.0166" y2="58.0017" gradientUnits="userSpaceOnUse">
<stop stop-color="#EF8080"/>
<stop offset="1" stop-color="#F0145A"/>
</linearGradient>
<linearGradient id="paint1_linear_22728_12620" x1="32.0166" y1="35.0781" x2="32.0166" y2="43.7222" gradientUnits="userSpaceOnUse">
<stop stop-color="#EF8080"/>
<stop offset="1" stop-color="#F0145A"/>
</linearGradient>
<linearGradient id="paint2_linear_22728_12620" x1="32.0167" y1="15.1445" x2="32.0167" y2="32.9886" gradientUnits="userSpaceOnUse">
<stop stop-color="#EF8080"/>
<stop offset="1" stop-color="#F0145A"/>
</linearGradient>
<linearGradient id="paint3_linear_22728_12620" x1="32.0167" y1="5.95508" x2="32.0167" y2="13.1384" gradientUnits="userSpaceOnUse">
<stop stop-color="#EF8080"/>
<stop offset="1" stop-color="#F0145A"/>
</linearGradient>
</defs>
</svg>
